<svg xmlns="http://www.w3.org/2000/svg" viewBox="0 0 1269.5 666.94"><defs><style>.cls-1,.cls-5,.cls-7{fill:#fa9319;}.cls-2{fill:none;}.cls-3,.cls-6{fill:#1b62b3;}.cls-4{fill:#fbcb89;}.cls-5,.cls-7{stroke:#fa9319;}.cls-5,.cls-6,.cls-7{stroke-miterlimit:10;}.cls-5{stroke-width:11px;}.cls-6{stroke:#1b62b3;stroke-width:15px;}.cls-7{stroke-width:4px;}</style></defs><title>Asset 1</title><g id="Layer_2" data-name="Layer 2"><g id="Layer_2-2" data-name="Layer 2"><polygon class="cls-1" points="101.26 336.34 100.47 336.71 101.26 336.35 101.26 336.34"/><polygon class="cls-1" points="329.68 233.32 328.82 233.71 328.82 233.32 0 233.32 51.12 286.32 400.5 286.32 400.5 233.32 329.68 233.32"/><path class="cls-1" d="M97.92,334.83h0l2,2.1,24.47,25.38H400.5v-54H72.35Zm3.34,1.51h0l-.79.36Z"/><polygon class="cls-1" points="195.81 436.32 400.5 436.32 400.5 382.32 143.72 382.32 195.81 436.32"/><polyline class="cls-2" points="127.55 286.32 131.13 291.07 144.13 308.32"/><polygon class="cls-3" points="921.5 454.32 921.5 500.26 919.66 501.32 869.5 530.28 686.06 636.18 635.5 665.38 632.79 666.94 580.26 636.61 400.5 532.83 345.92 501.32 344.5 500.5 344.5 454.32 400.5 454.32 400.5 468.32 395.31 468.32 400.5 471.32 452.47 501.32 633.53 605.85 635.5 606.99 635.5 604.72 814.59 501.32 869.5 469.62 871.75 468.32 869.5 468.32 869.5 454.32 921.5 454.32"/><line class="cls-2" x1="199.89" y1="382.32" x2="184.82" y2="362.32"/><polygon class="cls-3" points="400.5 471.32 400.5 468.32 397 465.82 394 468.82 400 471.82 400.5 471.32"/><polyline class="cls-3" points="869.5 469.62 869.5 468.32 872 467.82 872 469.82"/><line class="cls-2" x1="87.61" y1="233.32" x2="78.5" y2="233.32"/><line class="cls-2" x1="345.17" y1="233.32" x2="344.5" y2="233.32"/><line class="cls-2" x1="635.5" y1="604.72" x2="633.53" y2="605.85"/><polygon class="cls-3" points="921.5 165.25 921.5 214.32 869.5 214.32 869.5 200.59 808.41 165.32 635.68 65.6 635.5 65.49 635.5 65.7 462.95 165.32 400.5 201.37 400.5 214.32 344.5 214.32 344.5 167.88 348.93 165.32 400.5 135.55 578.67 32.68 635.28 0 635.5 0.13 692.28 32.91 692.29 32.91 869.5 135.23 921.5 165.25"/><line class="cls-2" x1="635.68" y1="65.6" x2="635.5" y2="65.7"/><polygon class="cls-4" points="166.72 336.34 166.72 336.35 166.1 336.71 166.72 336.34"/><line class="cls-2" x1="164.11" y1="334.83" x2="156.72" y2="330.57"/><polyline class="cls-5" points="550.06 354.19 452.26 354.19 452.26 316.71 550.06 316.71"/><polygon class="cls-6" points="636 245.74 712.82 290.1 734.73 290.1 734.73 277.82 636 220.82 537.27 277.82 537.27 391.82 636 448.82 734.73 391.82 734.73 383.23 706.44 383.23 636 423.9 558.86 379.36 558.86 290.28 636 245.74"/><polyline class="cls-5" points="820.17 354.19 674.37 354.19 674.37 316.71 820.17 316.71"/><path class="cls-5" d="M449.52,354.19,450,231.25l186-107.4,186,107.4v55H781.33V254.73L636,170.81,490.63,254.73l0,99.46Z"/><polygon class="cls-5" points="822 316.71 821.33 316.71 806.09 316.71 781.33 316.71 781.33 418.91 635.98 502.83 490.63 418.91 490.63 386.18 449.96 386.18 449.96 442.39 635.98 549.79 822 442.39 822 316.71"/><path class="cls-7" d="M635.5,279.63,589,306.47v53.7L635.5,387,682,360.17v-53.7Zm26.41,68.94L635.5,363.82l-26.41-15.25v-30.5l26.41-15.25,26.41,15.25Z"/><path class="cls-1" d="M869,309.32v54h276.07l24.47-25.38,2-2.1h0l25.57-26.51Zm299.24,28h0l.79.37Z"/><polygon class="cls-1" points="869 234.32 869 287.32 1218.38 287.32 1269.5 234.32 940.68 234.32 940.68 234.71 939.82 234.32 869 234.32"/><polygon class="cls-1" points="869 383.32 869 437.32 1073.68 437.32 1125.78 383.32 869 383.32"/><path class="cls-1" d="M869,309.32v54h276.07l24.47-25.38,2-2.1h0l25.57-26.51Zm299.24,28h0l.79.37Z"/><polygon class="cls-1" points="869 234.32 869 287.32 1218.38 287.32 1269.5 234.32 940.68 234.32 940.68 234.71 939.82 234.32 869 234.32"/><polygon class="cls-1" points="869 383.32 869 437.32 1073.68 437.32 1125.78 383.32 869 383.32"/><polygon class="cls-3" points="1.5 233.32 105.93 286.32 401.5 286.32 401.5 233.32 1.5 233.32"/><polygon class="cls-3" points="149 307.82 258 362.82 401 362.82 401 307.82 149 307.82"/><polyline class="cls-3" points="294 381.82 401 435.82 401 381.82"/><polygon class="cls-3" points="1268.5 234.32 1164.07 287.32 868.5 287.32 868.5 234.32 1268.5 234.32"/><polygon class="cls-3" points="1121 308.82 1012 363.82 869 363.82 869 308.82 1121 308.82"/><polyline class="cls-3" points="976 382.82 869 436.82 869 382.82"/></g></g></svg>